<?xml version="1.0" encoding="UTF-8" standalone="no"?>
<!-- Created with Inkscape (http://www.inkscape.org/) -->

<svg
   width="210mm"
   height="297mm"
   viewBox="0 0 210 297"
   version="1.1"
   id="svg20439"
   xml:space="preserve"
   inkscape:version="1.2.2 (732a01da63, 2022-12-09)"
   sodipodi:docname="ata - uno.svg"
   xmlns:inkscape="http://www.inkscape.org/namespaces/inkscape"
   xmlns:sodipodi="http://sodipodi.sourceforge.net/DTD/sodipodi-0.dtd"
   xmlns="http://www.w3.org/2000/svg"
   xmlns:svg="http://www.w3.org/2000/svg"><sodipodi:namedview
     id="namedview20441"
     pagecolor="#ffffff"
     bordercolor="#666666"
     borderopacity="1.0"
     inkscape:showpageshadow="2"
     inkscape:pageopacity="0.0"
     inkscape:pagecheckerboard="0"
     inkscape:deskcolor="#d1d1d1"
     inkscape:document-units="mm"
     showgrid="false"
     inkscape:zoom="0.42048261"
     inkscape:cx="283.00814"
     inkscape:cy="356.73295"
     inkscape:window-width="1440"
     inkscape:window-height="877"
     inkscape:window-x="-8"
     inkscape:window-y="-8"
     inkscape:window-maximized="1"
     inkscape:current-layer="layer1" /><defs
     id="defs20436" /><g
     inkscape:label="Capa 1"
     inkscape:groupmode="layer"
     id="layer1"><path
       style="stroke-width:0.748283;stroke-dasharray:none;fill:none;stroke:#000000;stroke-linecap:butt;stroke-linejoin:miter;stroke-opacity:1"
       d="m 131.04193,106.98059 c 0.97122,-1.4141 1.50399,-3.07179 1.53146,-5.01019 l 2.20212,0.0787 c 1.21835,-0.0926 1.95356,-0.38177 2.87861,-0.98762 0.88573,-0.70278 1.44286,-1.05161 2.03002,-2.141268 0.27956,-1.00989 0.46775,-1.855569 0.19467,-2.864281 l -7.84301,0.387725 -1.81701,-0.27354 c -0.50178,-0.160363 -1.27714,0.241861 -1.70479,0.600455 l -5.24711,5.630359 c -0.95764,2.18367 -1.14528,2.06665 -1.04159,3.99736 1.31578,2.73163 3.76422,6.76393 5.49329,9.14739 1.86966,1.50663 2.46734,2.59512 5.09539,2.80785 l 5.03336,0.11124 c 1.62841,-0.0485 3.19396,-0.14192 4.31034,-0.55617 1.07527,-0.48202 1.10645,-0.5368 2.94771,-1.52948 1.02637,-0.88692 1.63799,-2.43229 1.99827,-3.85586 1.13289,-2.86053 1.10365,-5.75446 1.23352,-9.35718 0.18144,-1.24641 0.57245,-1.45366 1.18992,-2.36388 2.22775,-3.81059 -1.42305,-4.620838 -2.36046,-4.136397 -0.31815,0.190523 1.02445,-2.171065 0.73161,-2.933668 -1.51233,-3.017237 -3.18012,-2.971692 -5.57633,-2.84349 0.10756,-0.663303 0.086,-2.962379 -0.47578,-3.46196 -2.28287,-1.417623 -3.93402,-1.998736 -5.45193,-0.784522 l -1.80048,4.013985 c -1.3798,-1.242142 -1.6899,-2.265325 -1.92078,-3.018225 l -1.19378,-19.173056 c -0.50264,-2.594673 -1.4669,-3.248331 -2.60828,-3.902613 -0.87611,-0.08877 -3.51888,1.650226 -3.06468,5.18181 l 0.22246,21.245785 -2.2664,10.894031"
       id="path20556"
       sodipodi:nodetypes="ccccccccccccccccccccccccccccccc"
       transform="matrix(-1.0046046,0,0,0.99998879,199.3313,-2.1091535)" /><path
       style="stroke-width:0.748283;stroke-dasharray:none;fill:none;stroke:#000000;stroke-linecap:butt;stroke-linejoin:miter;stroke-opacity:1"
       d="m 134.63954,90.569701 c -1.4534,2.909312 -1.87953,5.445542 -1.9815,5.858631"
       id="path20609"
       sodipodi:nodetypes="cc"
       transform="matrix(-1.0046046,0,0,0.99998879,199.3313,-2.1091535)" /><path
       style="stroke-width:0.748283;stroke-dasharray:none;fill:none;stroke:#000000;stroke-linecap:butt;stroke-linejoin:miter;stroke-opacity:1"
       d="m 142.36485,90.825363 c -1.32521,1.910464 -1.46479,2.355076 -1.9892,3.280989 -0.17223,0.304078 -0.79576,1.770535 -0.81995,1.868522"
       id="path20609-2"
       sodipodi:nodetypes="csc"
       transform="matrix(-1.0046046,0,0,0.99998879,199.3313,-2.1091535)" /><path
       style="stroke-width:0.748283;stroke-dasharray:none;fill:none;stroke:#000000;stroke-linecap:butt;stroke-linejoin:miter;stroke-opacity:1"
       d="m 148.88356,101.64459 c -1.63733,1.8706 -2.52526,3.0436 -3.49214,3.55547 -2.464,1.30447 -3.98948,-1.72841 -4.07924,-1.81947"
       id="path20609-2-73"
       sodipodi:nodetypes="csc"
       transform="matrix(-1.0046046,0,0,0.99998879,199.3313,-2.1091535)" /><path
       style="stroke-width:0.748283;stroke-dasharray:none;fill:none;stroke:#000000;stroke-linecap:butt;stroke-linejoin:miter;stroke-opacity:1"
       d="m 147.21505,96.55561 c -0.71823,0.921645 -5.98832,7.62507 -8.00964,8.42509 -1.58926,0.62902 -3.03924,-0.85381 -3.18004,-1.93316 -0.0246,-0.18832 0.078,-1.40951 0.0514,-1.09749 -0.28311,3.33114 -3.62828,1.6824 -3.60081,1.17332"
       id="path20609-2-7"
       sodipodi:nodetypes="csssc"
       inkscape:transform-center-x="2.7988031"
       inkscape:transform-center-y="-5.9862251"
       transform="matrix(-1.0046046,0,0,0.99998879,199.3313,-2.1091535)" /><path
       style="stroke-width:0.748283;stroke-dasharray:none;fill:none;stroke:#000000;stroke-linecap:butt;stroke-linejoin:miter;stroke-opacity:1"
       d="m 135.28233,108.85447 c 1.6471,1.37217 1.23476,3.17043 0.77865,4.97774 l -0.0278,-0.11123"
       id="path20611"
       sodipodi:nodetypes="ccc"
       transform="matrix(-1.0046046,0,0,0.99998879,199.3313,-2.1091535)" /></g></svg>
