<?xml version="1.0" encoding="UTF-8" standalone="no"?>
<!-- Created with Inkscape (http://www.inkscape.org/) -->

<svg
   width="210mm"
   height="297mm"
   viewBox="0 0 210 297"
   version="1.1"
   id="svg20439"
   xml:space="preserve"
   inkscape:version="1.2.2 (732a01da63, 2022-12-09)"
   sodipodi:docname="muyhyca - cuatro.svg"
   inkscape:export-filename="..\..\..\..\..\..\..\Desktop\muyhyca - cuatro.png"
   inkscape:export-xdpi="507"
   inkscape:export-ydpi="507"
   xmlns:inkscape="http://www.inkscape.org/namespaces/inkscape"
   xmlns:sodipodi="http://sodipodi.sourceforge.net/DTD/sodipodi-0.dtd"
   xmlns="http://www.w3.org/2000/svg"
   xmlns:svg="http://www.w3.org/2000/svg"><sodipodi:namedview
     id="namedview20441"
     pagecolor="#ffffff"
     bordercolor="#666666"
     borderopacity="1.0"
     inkscape:showpageshadow="2"
     inkscape:pageopacity="0.0"
     inkscape:pagecheckerboard="0"
     inkscape:deskcolor="#d1d1d1"
     inkscape:document-units="mm"
     showgrid="false"
     inkscape:zoom="2.3786088"
     inkscape:cx="293.86926"
     inkscape:cy="195.49242"
     inkscape:window-width="1440"
     inkscape:window-height="877"
     inkscape:window-x="-8"
     inkscape:window-y="-8"
     inkscape:window-maximized="1"
     inkscape:current-layer="layer1" /><defs
     id="defs20436" /><g
     inkscape:label="Capa 1"
     inkscape:groupmode="layer"
     id="layer1"><path
       style="fill:none;fill-opacity:1;stroke:#000000;stroke-width:0.75;stroke-linecap:butt;stroke-linejoin:miter;stroke-dasharray:none;stroke-opacity:1"
       d="m 85.900648,57.955053 h 0.11123 l -1.33482,-2.33593 h -3.8932 c -1.21835,-0.0926 -2.18952,-0.61773 -3.11457,-1.22358 -0.88573,-0.70278 -1.44286,-1.05161 -2.03002,-2.14127 -0.27956,-1.00989 -0.46775,-1.855569 -0.19467,-2.864281 l 7.84301,0.387725 6.33965,-0.824123 c 0.50178,-0.160363 0.96252,-0.03343 1.39017,0.325164 l 4.33815,5.116785 c 0.52356,0.64217 1.06526,1.25713 1.44604,2.11346 0.3166,0.82614 0.13559,1.25419 0.11124,1.80756 -0.7652,3.12491 -1.7192,5.82008 -3.44827,8.20354 -1.86966,1.50663 -3.48985,2.12319 -6.1179,2.33592 l -5.03336,0.11124 c -1.62841,-0.0485 -3.19396,-0.14192 -4.31034,-0.55617 -1.07527,-0.48202 -1.10645,-0.5368 -2.94771,-1.52948 -1.02637,-0.88692 -2.03126,-2.27498 -2.39154,-3.69855 C 69.995686,57.885678 71.308724,55.737966 68.31441,50.468798 67.530646,48.318205 56.314696,36.834712 57.496606,33.816327 c 0.52907,-1.352401 1.36316,-2.59579 3.897841,-0.01537 0.776987,0.649365 6.737515,6.935766 7.425438,7.616007 0.72148,0.757845 2.884143,1.41715 1.285455,-2.927951 L 65.67621,25.956867 c -0.63747,-3.317879 -1.47393,-4.096087 -1.09384,-5.592908 0.4151,-1.227928 0.66924,-1.454698 1.86539,-1.883658 0.64429,-0.217428 1.97225,-0.239531 2.51882,0.837052 0.76447,2.216454 1.6454,4.194497 2.33593,6.229133 l 5.031968,11.941415 c 0.88726,0.59064 1.16235,0.569105 1.55728,0.667409 0.6595,-0.01483 1.04602,-0.856122 1.11235,-1.983137 l 0.569664,-6.632086 c -0.01269,-2.990715 -0.123322,-5.273539 0.07563,-7.910308 -0.281318,-1.740271 -0.06638,-3.480542 0.04992,-5.220813 0.041,-0.864521 0.20577,-1.764388 0.9733,-2.83648 0.76111,-0.978189 1.92513,-0.803712 3.03114,-0.500553 1.42176,0.471833 1.5151,1.346435 1.86319,2.196881 0.421386,1.642117 0.17048,3.833499 0.447417,5.966024 0.376053,2.895745 0.248996,6.043058 0.313766,8.14153 l 0.907327,9.112645 c 0.59325,1.097834 1.54801,0.597856 2.28031,-0.361513 0.931532,-3.141985 1.940343,-6.090773 3.287426,-8.193881 0.834849,-2.709927 0.846558,-4.240033 2.247298,-6.94996 l 1.984781,-5.607798 c 0.92524,-0.738739 1.09632,-0.780637 1.7184,-0.843665 0.876109,-0.08877 3.518883,0.204178 3.064683,3.735762 l -0.92945,4.629907 c -1.278613,4.680133 -1.464393,4.165385 -2.554467,7.148659 -0.337204,3.296794 -2.552605,7.861049 -2.441772,8.89755 l -0.228607,5.877609 1.040232,5.794108 0.167502,4.225033"
       id="path20556-0"
       sodipodi:nodetypes="ccccccccccccccccccccccccccccccccccccccsccccccscccccc" /><path
       style="fill:none;fill-opacity:1;stroke:#000000;stroke-width:0.75;stroke-linecap:butt;stroke-linejoin:miter;stroke-opacity:1;stroke-dasharray:none"
       d="m 77.266908,59.317673 c 1.6471,1.37217 1.23476,3.17043 0.77865,4.97774 l -0.0278,-0.11123"
       id="path20611-4"
       sodipodi:nodetypes="ccc" /></g></svg>
