<?xml version="1.0" encoding="UTF-8" standalone="no"?>
<!-- Created with Inkscape (http://www.inkscape.org/) -->

<svg
   width="210mm"
   height="297mm"
   viewBox="0 0 210 297"
   version="1.1"
   id="svg20439"
   xml:space="preserve"
   inkscape:version="1.2.2 (732a01da63, 2022-12-09)"
   sodipodi:docname="hyzca - cinco.svg"
   inkscape:export-filename="..\..\..\..\..\..\..\Desktop\muyhyca - cuatro.png"
   inkscape:export-xdpi="507"
   inkscape:export-ydpi="507"
   xmlns:inkscape="http://www.inkscape.org/namespaces/inkscape"
   xmlns:sodipodi="http://sodipodi.sourceforge.net/DTD/sodipodi-0.dtd"
   xmlns="http://www.w3.org/2000/svg"
   xmlns:svg="http://www.w3.org/2000/svg"><sodipodi:namedview
     id="namedview20441"
     pagecolor="#ffffff"
     bordercolor="#666666"
     borderopacity="1.0"
     inkscape:showpageshadow="2"
     inkscape:pageopacity="0.0"
     inkscape:pagecheckerboard="0"
     inkscape:deskcolor="#d1d1d1"
     inkscape:document-units="mm"
     showgrid="false"
     inkscape:zoom="1.6819304"
     inkscape:cx="171.23182"
     inkscape:cy="157.55705"
     inkscape:window-width="1440"
     inkscape:window-height="877"
     inkscape:window-x="-8"
     inkscape:window-y="-8"
     inkscape:window-maximized="1"
     inkscape:current-layer="g21218" /><defs
     id="defs20436" /><g
     inkscape:label="Capa 1"
     inkscape:groupmode="layer"
     id="layer1"><g
       id="g21218"><path
         style="fill:none;fill-opacity:1;stroke:#000000;stroke-width:0.75;stroke-linecap:butt;stroke-linejoin:miter;stroke-dasharray:none;stroke-opacity:1"
         d="m 93.130348,40.452435 c 2.707423,-2.819568 7.428642,-3.695324 8.772372,-0.741236 0.22064,0.48506 0.5973,0.700715 0.58089,1.293088 -0.91765,0.464184 -2.4643,1.549659 -3.232842,2.537172 -0.742314,0.953818 -2.805423,4.661731 -3.132025,5.226793 -0.412243,0.884327 -3.595489,6.187343 -4.583162,8.403535 -0.877887,1.942276 -3.845727,5.514816 -5.26469,8.094952 -1.667597,1.727624 -3.198447,2.541049 -5.779583,3.079228 l -4.980374,0.736859 c -1.621784,0.15456 -3.186788,0.256725 -4.346047,-0.01535 C 70.037983,68.723039 70.000228,68.672566 68.04973,67.91678 66.92095,67.164505 65.751107,65.912314 65.216442,64.544656 61.909791,59.620548 62.945301,57.326107 59.318437,52.470605 58.273092,50.434287 45.715053,40.4361 46.512083,37.294079 c 0.35663,-1.407736 1.02947,-2.745273 3.865617,-0.500401 0.851769,0.547607 7.548392,6.043239 8.315633,6.632567 0.810196,0.662152 3.038103,1.047151 0.911028,-3.065179 L 53.649842,28.47765 c -1.045477,-3.212735 -1.972293,-3.880781 -1.781463,-5.413271 0.259036,-1.270045 0.482975,-1.526683 1.616432,-2.101188 0.612218,-0.29593 1.9271,-0.483147 2.603418,0.517034 1.0344,2.104068 2.154679,3.957083 3.093083,5.88995 l 6.479143,11.222246 c 0.953875,0.475613 1.224146,0.420006 1.62824,0.46839 0.652526,-0.0968 0.931328,-0.979659 0.856867,-2.106166 l -0.260238,-6.651418 c -0.384834,-2.965879 -0.778741,-5.217181 -0.909525,-7.858209 -0.495735,-1.691724 -0.499074,-3.445215 -0.600283,-5.186429 -0.06692,-0.862901 -0.01544,-1.776279 0.612685,-2.935566 0.63344,-1.065315 1.810124,-1.037076 2.945267,-0.873935 1.469432,0.291202 1.670904,1.147386 2.122139,1.947893 0.622498,1.576899 0.646296,3.78247 1.186507,5.863943 0.733552,2.826421 0.999217,5.965074 1.324673,8.039167 l 2.034489,8.928851 c 0.72528,1.015458 1.610385,0.400532 2.217582,-0.642523 0.533217,-3.233497 1.167158,-6.284918 2.242,-8.539338 0.491062,-2.792765 0.312233,-4.31243 1.364786,-7.175629 l 1.271365,-5.811229 c 0.826097,-0.848156 0.990632,-0.911022 1.60003,-1.050988 0.858247,-0.197126 3.516929,-0.235391 3.505824,3.325263 l -0.34595,4.709589 c -0.686152,4.802883 -0.934556,4.315262 -1.644837,7.411015 0.07576,3.313128 -1.554319,8.117633 -1.315338,9.132279 l 0.504735,5.860356 2.014882,1.385399 1.927947,-2.068876 3.231841,-4.378818"
         id="path20556-0"
         sodipodi:nodetypes="cscscccccccccccccccccccccccccccsccccccscccccccc" /></g></g></svg>
