<?xml version="1.0" encoding="UTF-8" standalone="no"?>
<!-- Created with Inkscape (http://www.inkscape.org/) -->

<svg
   width="210mm"
   height="297mm"
   viewBox="0 0 210 297"
   version="1.1"
   id="svg38553"
   xml:space="preserve"
   inkscape:version="1.2.2 (732a01da63, 2022-12-09)"
   sodipodi:docname="magueza - nada.svg"
   xmlns:inkscape="http://www.inkscape.org/namespaces/inkscape"
   xmlns:sodipodi="http://sodipodi.sourceforge.net/DTD/sodipodi-0.dtd"
   xmlns="http://www.w3.org/2000/svg"
   xmlns:svg="http://www.w3.org/2000/svg"><sodipodi:namedview
     id="namedview38555"
     pagecolor="#ffffff"
     bordercolor="#666666"
     borderopacity="1.0"
     inkscape:showpageshadow="2"
     inkscape:pageopacity="0.0"
     inkscape:pagecheckerboard="0"
     inkscape:deskcolor="#d1d1d1"
     inkscape:document-units="mm"
     showgrid="false"
     inkscape:zoom="1.1893044"
     inkscape:cx="538.12968"
     inkscape:cy="273.26898"
     inkscape:window-width="1440"
     inkscape:window-height="877"
     inkscape:window-x="-8"
     inkscape:window-y="-8"
     inkscape:window-maximized="1"
     inkscape:current-layer="g1082"
     showguides="true" /><defs
     id="defs38550" /><g
     inkscape:label="Capa 1"
     inkscape:groupmode="layer"
     id="layer1"
     style="display:inline"><g
       id="g41793" /><g
       id="g1082"><path
         style="fill:none;stroke:#000000;stroke-width:0.75;stroke-linecap:butt;stroke-linejoin:miter;stroke-dasharray:none;stroke-opacity:1"
         d="m 58.676375,68.429556 c 3.943915,-7.193429 10.306078,-10.614147 10.306078,-10.614147 3.441897,-2.669002 8.004169,-3.726015 13.034864,-5.404535 5.274421,-1.75984 7.782141,-2.129848 13.029133,-1.665124 7.16892,1.04447 11.69892,4.434646 13.5286,10.225106 1.57772,5.346939 2.204,10.817079 1.22494,16.609628 -1.421,5.695941 -2.33236,9.391265 -6.76239,13.029684 -6.231676,3.916711 -10.843288,5.910974 -19.82097,7.550848 -11.076144,1.08632 -16.840383,-3.865862 -20.292901,-7.696978 -2.473808,-2.91614 -4.447837,-9.14842 -5.348517,-12.742055 -0.35076,-1.399504 0.307883,-7.840528 1.101163,-9.292427 z"
         id="path41756"
         sodipodi:nodetypes="ccsccccccsc" /><path
         style="fill:none;stroke:#000000;stroke-width:0.75;stroke-linecap:butt;stroke-linejoin:miter;stroke-dasharray:none;stroke-opacity:1"
         d="m 57.184252,77.632149 52.645998,0.29158"
         id="path41758"
         sodipodi:nodetypes="cc" /><path
         style="fill:none;stroke:#000000;stroke-width:0.75;stroke-linecap:butt;stroke-linejoin:miter;stroke-opacity:1;stroke-dasharray:none"
         d="m 69.726198,57.350029 c 0.0642,9.995534 0.302668,13.176983 0.197796,20.518085"
         id="path41760"
         sodipodi:nodetypes="cc" /><path
         style="fill:none;stroke:#000000;stroke-width:0.75;stroke-linecap:butt;stroke-linejoin:miter;stroke-opacity:1;stroke-dasharray:none"
         d="m 81.958155,52.462659 c -0.296922,8.58188 -0.04331,17.006498 0.07865,25.169492"
         id="path41762"
         sodipodi:nodetypes="cc" /><path
         style="fill:none;stroke:#000000;stroke-width:0.75;stroke-linecap:butt;stroke-linejoin:miter;stroke-opacity:1;stroke-dasharray:none"
         d="m 94.896848,50.771583 0.196637,27.096531"
         id="path41764"
         sodipodi:nodetypes="cc" /></g><g
       id="g41793-4"
       style="display:inline"
       transform="translate(-45.336782,61.98492)"><path
         style="fill:none;stroke:#000000;stroke-width:0.75;stroke-linecap:butt;stroke-linejoin:miter;stroke-dasharray:none;stroke-opacity:1"
         d="m 168.39357,106.36971 c -1.44117,0.1792 -17.1392,0.83332 -21.19404,-1.24879 -3.97147,-2.0393 -7.99198,-7.655816 -8.88523,-10.041322 -0.28813,-1.031555 -3.63323,-8.691391 -3.80008,-10.367492 -0.25724,-2.584116 0.8191,-5.313442 1.33973,-7.317735 0.9477,-3.856871 0.13239,-5.747542 3.68207,-9.604413 1.73583,-1.486844 4.19558,-2.005252 5.93141,-1.714955 0.22582,-1.810634 0.1401,-1.881863 1.58703,-3.823084 1.26894,-2.065679 4.12406,-3.359064 7.63209,-2.910133 0.99985,-2.675054 3.24042,-3.474942 5.02685,-4.189425 3.30344,0.243418 4.55546,0.38976 5.93721,2.290167 1.12555,-2.35396 1.74415,-3.45284 3.13496,-4.106623 0.92631,-0.496449 2.47335,-0.97147 3.46653,-0.631702 2.09508,0.716724 3.89461,2.22444 4.99978,3.896357 0.77395,3.697982 0.77076,10.073997 -0.11996,13.475601 l 5.75874,3.845558 c 1.33579,3.63436 1.74319,8.763446 1.11513,12.397806 -1.0701,2.821092 -4.96408,12.969574 -6.60795,14.727335 -6.50958,4.56524 -4.64467,4.81174 -9.06026,5.30839"
         id="path41725-7"
         sodipodi:nodetypes="cscsccccccccscccccc" /><path
         style="fill:none;stroke:#000000;stroke-width:0.75;stroke-linecap:butt;stroke-linejoin:miter;stroke-dasharray:none;stroke-opacity:1"
         d="m 137.555,77.641563 c 1.0415,1.55868 2.083,1.143657 3.12449,1.335072 -0.43822,-1.414917 -0.88026,-2.961237 -1.04149,-4.672748 l 0.8332,4.672748 c 0.60466,2.102121 1.95341,4.522975 3.8344,6.89778 1.94134,2.214691 1.6733,1.776664 3.24778,1.557669 1.8886,-0.697194 2.69031,-1.974911 2.9162,-3.560189 l -1.78734,-10.277196 -3.20094,-7.537288"
         id="path41727-9"
         sodipodi:nodetypes="ccccccccc" /><path
         style="fill:none;stroke:#000000;stroke-width:0.75;stroke-linecap:butt;stroke-linejoin:miter;stroke-dasharray:none;stroke-opacity:1"
         d="M 167.96673,76.083981 Z"
         id="path41729-3" /><path
         style="fill:none;stroke:#000000;stroke-width:0.75;stroke-linecap:butt;stroke-linejoin:miter;stroke-dasharray:none;stroke-opacity:1"
         d="m 150.37174,83.9899 c 3.37754,2.473453 4.78048,2.325419 6.34682,0.104505 0.77384,-3.844421 1.54511,-7.282331 1.01252,-10.946664 -0.13492,-0.92829 -0.12453,-2.040113 -0.0678,-3.136751 -0.23418,-1.64842 -0.8954,-2.640024 -2.97185,-10.75407"
         id="path41731-1"
         sodipodi:nodetypes="ccscc" /><path
         style="fill:none;stroke:#000000;stroke-width:0.75;stroke-linecap:butt;stroke-linejoin:miter;stroke-dasharray:none;stroke-opacity:1"
         d="M 169.42483,84.316918 Z"
         id="path41733-9" /><path
         style="fill:none;stroke:#000000;stroke-width:0.75;stroke-linecap:butt;stroke-linejoin:miter;stroke-dasharray:none;stroke-opacity:1"
         d="m 157.57704,80.246534 c 1.59531,1.331557 1.50176,1.965693 2.5837,2.200438 2.13241,0.696439 4.24785,-1.394102 4.6815,-1.912755 0.46693,-0.504408 0.9693,-1.64275 1.17616,-3.25843"
         id="path41735-5"
         sodipodi:nodetypes="cccc" /><path
         style="fill:none;stroke:#000000;stroke-width:0.75;stroke-linecap:butt;stroke-linejoin:miter;stroke-dasharray:none;stroke-opacity:1"
         d="m 165.65279,57.36025 1.29848,10.12921"
         id="path41737-5"
         sodipodi:nodetypes="cc" /><path
         style="fill:none;stroke:#000000;stroke-width:0.75;stroke-linecap:butt;stroke-linejoin:miter;stroke-dasharray:none;stroke-opacity:1"
         d="m 177.23606,70.076162 -5.20749,-4.338982 c -4.439,2.245534 -10.15351,2.269799 -13.31203,2.225098 -1.57693,1.705924 -1.15422,3.411847 -1.0415,5.117771 1.23493,2.779629 2.75414,2.546884 4.166,3.560188 2.6656,0.805097 6.34039,1.035158 8.41699,1.001326 l 3.54109,-4.005211 c -1.73583,2.256558 -1.77783,2.581979 -3.51365,4.002895 l 4.50893,5.619102 -3.55154,-4.216542 c -1.71617,-0.06593 -3.84353,0.547431 -4.52592,0.713684 -0.71016,0.194876 -1.48253,0.863448 -2.48697,1.720449 -1.90667,1.7484 -4.40523,10.696491 -3.85696,13.74243"
         id="path41739-3"
         sodipodi:nodetypes="ccccccccccccc" /><path
         style="fill:none;stroke:#000000;stroke-width:0.75;stroke-linecap:butt;stroke-linejoin:miter;stroke-dasharray:none;stroke-opacity:1"
         d="M 166.71694,83.204358 Z"
         id="path41741-8" /></g><g
       id="g1075"><g
         id="g45687"><path
           style="display:inline;fill:none;stroke:#000000;stroke-width:0.75;stroke-linecap:butt;stroke-linejoin:miter;stroke-dasharray:none;stroke-opacity:1"
           d="m 168.39357,106.36971 c -1.44117,0.1792 -17.1392,0.83332 -21.19404,-1.24879 -3.97147,-2.0393 -7.99198,-7.655816 -8.88523,-10.041322 -0.28813,-1.031555 -3.63323,-8.691391 -3.80008,-10.367492 -0.25724,-2.584116 0.8191,-5.313442 1.33973,-7.317735 0.9477,-3.856871 0.13239,-5.747542 3.68207,-9.604413 1.73583,-1.486844 3.70399,-1.985588 5.43982,-1.695291 0.6386,0.10082 1.17897,-0.164086 1.21275,-0.754962 0.0467,-0.816652 -0.14307,-1.734174 0.86587,-3.087786 1.26894,-2.065679 3.77011,-3.024782 7.27814,-2.575851 0.98392,0.174491 1.22505,-0.293228 1.29326,-0.44002 1.07382,-2.310626 2.40782,-3.411883 4.08754,-4.083687 3.30344,0.243418 4.0442,1.215634 5.58326,2.054203 0.9066,0.39952 1.06632,0.07875 1.38941,-0.39394 0.8252,-1.207316 1.10001,-3.006886 2.0995,-3.476719 0.92631,-0.496449 2.47335,-0.97147 3.46653,-0.631702 2.09508,0.716724 3.89461,2.22444 4.99978,3.896357 0.77395,3.697982 1.43817,12.409921 0.54745,15.811525 l 5.86997,6.070248 c 1.33579,3.63436 0.96455,4.202832 0.33649,7.837192 -1.0701,2.821092 -4.96408,12.969574 -6.60795,14.727335 -6.50958,4.56524 -4.64467,4.81174 -9.06026,5.30839"
           id="path41725"
           sodipodi:nodetypes="cscscccsccsccscscccccc" /><path
           style="display:inline;fill:none;stroke:#000000;stroke-width:0.75;stroke-linecap:butt;stroke-linejoin:miter;stroke-dasharray:none;stroke-opacity:1"
           d="m 137.555,77.641563 c 1.0415,1.55868 1.86053,1.143657 2.90202,1.335072 -0.82059,-1.892265 -0.65094,-2.889513 0.0142,0 0.60466,2.102121 1.32417,3.736428 3.20516,6.111233 1.94134,2.214691 1.6733,1.776664 3.24778,1.557669 1.8886,-0.697194 3.25602,-1.49344 3.48191,-3.078718 -0.30511,-3.343991 -1.30095,-7.434031 -1.584,-8.14805 -0.85094,-2.146578 -1.14506,-3.643993 -2.08064,-5.937764"
           id="path41727"
           sodipodi:nodetypes="ccccccsc" /><path
           style="display:inline;fill:none;stroke:#000000;stroke-width:0.75;stroke-linecap:butt;stroke-linejoin:miter;stroke-opacity:1;stroke-dasharray:none"
           d="M 167.96673,76.083981 Z"
           id="path41729" /><path
           style="display:inline;fill:none;stroke:#000000;stroke-width:0.75;stroke-linecap:butt;stroke-linejoin:miter;stroke-dasharray:none;stroke-opacity:1"
           d="m 150.52905,82.416807 c 3.02363,2.473453 4.76203,2.325419 6.34682,0.104505 0.77384,-3.844421 1.3878,-5.709238 0.85521,-9.373571 -0.41692,-6.8174 -0.93361,-6.098366 -2.09416,-10.609404"
           id="path41731"
           sodipodi:nodetypes="cccc" /><path
           style="display:inline;fill:none;stroke:#000000;stroke-width:0.75;stroke-linecap:butt;stroke-linejoin:miter;stroke-opacity:1;stroke-dasharray:none"
           d="M 169.42483,84.316918 Z"
           id="path41733" /><path
           style="display:inline;fill:none;stroke:#000000;stroke-width:0.75;stroke-linecap:butt;stroke-linejoin:miter;stroke-dasharray:none;stroke-opacity:1"
           d="m 157.57704,80.246534 c 1.59531,1.331557 1.50176,1.965693 2.5837,2.200438"
           id="path41735"
           sodipodi:nodetypes="cc" /><path
           style="display:inline;fill:none;stroke:#000000;stroke-width:0.75;stroke-linecap:butt;stroke-linejoin:miter;stroke-dasharray:none;stroke-opacity:1"
           d="m 167.1854,60.296106 c 0.71215,4.487657 0.38912,8.896659 0.54451,12.755078"
           id="path41737"
           sodipodi:nodetypes="cc" /><path
           style="display:inline;fill:none;stroke:#000000;stroke-width:0.75;stroke-linecap:butt;stroke-linejoin:miter;stroke-dasharray:none;stroke-opacity:1"
           d="m 177.75965,72.417676 -5.95355,-0.0064 c -6.03275,-0.07519 -8.83685,3.440156 -11.19857,5.22843 -1.57693,1.705924 -1.04299,2.077033 -0.93027,3.782957 1.23493,2.779629 2.28549,4.830746 3.69735,5.84405 2.93345,0.524114 6.19446,-0.868264 8.56699,-1.522483 1.55728,-0.429413 3.95876,2.337828 4.93746,2.959242"
           id="path41739"
           sodipodi:nodetypes="cccccsc" /><path
           style="display:inline;fill:none;stroke:#000000;stroke-width:0.75;stroke-linecap:butt;stroke-linejoin:miter;stroke-opacity:1;stroke-dasharray:none"
           d="M 166.71694,83.204358 Z"
           id="path41741" /><path
           style="fill:none;stroke:#000000;stroke-width:0.75;stroke-linecap:butt;stroke-linejoin:miter;stroke-dasharray:none;stroke-opacity:1"
           d="m 172.37367,85.659697 c 1.80274,-0.910157 2.35833,-2.100349 2.55429,-3.229612 v 0"
           id="path43370"
           sodipodi:nodetypes="ccc" /><path
           style="fill:none;stroke:#000000;stroke-width:0.75;stroke-linecap:butt;stroke-linejoin:miter;stroke-dasharray:none;stroke-opacity:1"
           d="m 161.06754,84.53821 c -3.45906,1.111794 -6.58397,3.159211 -7.11901,12.458264 v -0.667409"
           id="path43435"
           sodipodi:nodetypes="ccc" /></g><path
         style="fill:none;stroke:#000000;stroke-width:0.264583px;stroke-linecap:butt;stroke-linejoin:miter;stroke-opacity:1"
         d="m 142.38014,79.866362 c 1.44502,-0.896055 2.11506,-2.149793 5.33926,-2.224691 h -0.22247"
         id="path224"
         sodipodi:nodetypes="ccc" /><path
         style="fill:none;stroke:#000000;stroke-width:0.264583px;stroke-linecap:butt;stroke-linejoin:miter;stroke-opacity:1"
         d="m 150.6115,75.194514 c 1.60487,-1.197583 3.2213,-2.325791 5.11678,-1.779752"
         id="path226"
         sodipodi:nodetypes="cc" /><path
         style="fill:none;stroke:#000000;stroke-width:0.264583px;stroke-linecap:butt;stroke-linejoin:miter;stroke-opacity:1"
         d="m 159.67874,71.50469 c 1.22803,-0.980345 3.05548,-2.997421 6.66289,-1.530293"
         id="path228"
         sodipodi:nodetypes="cc" /><path
         style="fill:none;stroke:#000000;stroke-width:0.264583px;stroke-linecap:butt;stroke-linejoin:miter;stroke-opacity:1"
         d="m 170.22693,67.853038 c 2.63808,-0.259594 4.59205,-0.634278 6.1179,-10e-7"
         id="path230"
         sodipodi:nodetypes="cc" /></g></g></svg>
