<?xml version="1.0" encoding="UTF-8" standalone="no"?>
<!-- Created with Inkscape (http://www.inkscape.org/) -->

<svg
   width="210mm"
   height="297mm"
   viewBox="0 0 210 297"
   version="1.1"
   id="svg20439"
   xml:space="preserve"
   inkscape:version="1.2.2 (732a01da63, 2022-12-09)"
   sodipodi:docname="mica - tres.svg"
   xmlns:inkscape="http://www.inkscape.org/namespaces/inkscape"
   xmlns:sodipodi="http://sodipodi.sourceforge.net/DTD/sodipodi-0.dtd"
   xmlns="http://www.w3.org/2000/svg"
   xmlns:svg="http://www.w3.org/2000/svg"><sodipodi:namedview
     id="namedview20441"
     pagecolor="#ffffff"
     bordercolor="#666666"
     borderopacity="1.0"
     inkscape:showpageshadow="2"
     inkscape:pageopacity="0.0"
     inkscape:pagecheckerboard="0"
     inkscape:deskcolor="#d1d1d1"
     inkscape:document-units="mm"
     showgrid="false"
     inkscape:zoom="4.7572176"
     inkscape:cx="296.81215"
     inkscape:cy="90.38897"
     inkscape:window-width="1440"
     inkscape:window-height="877"
     inkscape:window-x="-8"
     inkscape:window-y="-8"
     inkscape:window-maximized="1"
     inkscape:current-layer="layer1" /><defs
     id="defs20436" /><g
     inkscape:label="Capa 1"
     inkscape:groupmode="layer"
     id="layer1"><path
       style="stroke-width:0.75;stroke-dasharray:none;fill:none;stroke:#000000;stroke-linecap:butt;stroke-linejoin:miter;stroke-opacity:1"
       d="m 134.26002,107.45252 h -0.11123 l 1.33482,-2.33593 h 3.8932 c 1.21835,-0.0926 2.18952,-0.61773 3.11457,-1.22358 0.88573,-0.70278 1.44286,-1.05161 2.03002,-2.14127 0.27956,-1.00989 0.46775,-1.855569 0.19467,-2.864281 l -7.84301,0.387725 -6.33965,-0.824123 c -0.50178,-0.160363 -0.96252,-0.03343 -1.39017,0.325164 l -4.33815,5.116785 c -0.52356,0.64217 -1.06526,1.25713 -1.44604,2.11346 -0.3166,0.82614 -0.13559,1.25419 -0.11124,1.80756 0.7652,3.12491 1.7192,5.82008 3.44827,8.20354 1.86966,1.50663 3.48985,2.12319 6.1179,2.33592 l 5.03336,0.11124 c 1.62841,-0.0485 3.19396,-0.14192 4.31034,-0.55617 1.07527,-0.48202 1.10645,-0.5368 2.94771,-1.52948 1.02637,-0.88692 2.03126,-2.27498 2.39154,-3.69855 1.13289,-2.86053 2.3729,-5.68535 1.77975,-9.12122 1.22426,-1.59402 2.05216,-3.38622 3.00333,-5.116788 0.49563,-0.123416 0.91054,-1.054073 1.33482,-1.890988 0.0297,-0.778641 0.16322,-1.585091 -0.38933,-2.363733 -0.5044,-0.503263 -0.64407,-0.785671 -1.41824,-1.140152 -0.52671,-0.184893 -1.52862,-0.335837 -2.19688,-0.166851 0.45834,-1.444486 0.83788,-3.007175 1.00112,-4.894318 l 4.42913,-12.532146 c 0.63747,-3.317879 1.02899,-2.983742 0.6489,-4.480563 -0.4151,-1.227928 -0.66924,-1.454698 -1.86539,-1.883658 -0.64429,-0.217428 -1.97225,-0.239531 -2.51882,0.837052 -0.76447,2.216454 -1.20046,3.082152 -1.89099,5.116788 l -5.58814,11.941415 c -0.88726,0.59064 -1.16235,0.569105 -1.55728,0.667409 -0.6595,-0.01483 -1.04602,-0.541503 -1.11235,-1.668518 l -0.3337,-9.149036 -0.36151,-10.92879 c -0.041,-0.864521 -0.20577,-1.764388 -0.9733,-2.83648 -0.76111,-0.978189 -1.76782,-0.961021 -2.87383,-0.657862 -1.6184,0.51116 -1.90837,1.85769 -2.09915,3.258719 -0.6747,3.855286 -0.38757,6.781131 -0.49939,10.269765 l -0.6972,11.652632 c -0.78988,1.609089 -1.94128,0.991129 -2.67358,0.03176 l -4.83869,-13.598416 -2.39155,-5.784193 c -0.92524,-0.738739 -1.09632,-0.947488 -1.7184,-1.010516 -0.87611,-0.08877 -3.51888,0.371029 -3.06468,3.902613 l 5.95104,18.52054 0.20857,14.238015"
       id="path20556-9"
       sodipodi:nodetypes="ccccccccccccccccccccccccccccccccccccccccccccsccc"
       transform="matrix(-1,0,0,1,213.47625,-56.733644)" /><path
       style="stroke-width:0.75;stroke-dasharray:none;fill:none;stroke:#000000;stroke-linecap:butt;stroke-linejoin:miter;stroke-opacity:1"
       d="m 149.72162,92.880798 c -1.57334,0.994994 -3.50395,1.99845 -6.31256,3.865397 -1.03101,0.601553 -2.42085,1.536118 -2.91991,2.391542"
       id="path20607-9"
       sodipodi:nodetypes="ccc"
       transform="matrix(-1,0,0,1,213.47625,-56.733644)" /><path
       style="stroke-width:0.75;stroke-dasharray:none;fill:none;stroke:#000000;stroke-linecap:butt;stroke-linejoin:miter;stroke-opacity:1"
       d="m 152.28001,98.442522 c -2.23462,1.613568 -4.62506,2.946658 -7.23024,3.893208 -0.35224,-9.1e-4 -0.81572,0.33776 -1.16796,0.13906"
       id="path20609-7"
       sodipodi:nodetypes="ccc"
       transform="matrix(-1,0,0,1,213.47625,-56.733644)" /><path
       style="stroke-width:0.75;stroke-dasharray:none;fill:none;stroke:#000000;stroke-linecap:butt;stroke-linejoin:miter;stroke-opacity:1"
       d="m 138.15323,108.81514 c 1.6471,1.37217 1.23476,3.17043 0.77865,4.97774 l -0.0278,-0.11123"
       id="path20611-7"
       sodipodi:nodetypes="ccc"
       transform="matrix(-1,0,0,1,213.47625,-56.733644)" /></g></svg>
