<?xml version="1.0" encoding="UTF-8" standalone="no"?>
<!-- Created with Inkscape (http://www.inkscape.org/) -->

<svg
   width="210mm"
   height="297mm"
   viewBox="0 0 210 297"
   version="1.1"
   id="svg38553"
   xml:space="preserve"
   inkscape:version="1.2.2 (732a01da63, 2022-12-09)"
   sodipodi:docname="ytu - vacío.svg"
   xmlns:inkscape="http://www.inkscape.org/namespaces/inkscape"
   xmlns:sodipodi="http://sodipodi.sourceforge.net/DTD/sodipodi-0.dtd"
   xmlns="http://www.w3.org/2000/svg"
   xmlns:svg="http://www.w3.org/2000/svg"><sodipodi:namedview
     id="namedview38555"
     pagecolor="#ffffff"
     bordercolor="#666666"
     borderopacity="1.0"
     inkscape:showpageshadow="2"
     inkscape:pageopacity="0.0"
     inkscape:pagecheckerboard="0"
     inkscape:deskcolor="#d1d1d1"
     inkscape:document-units="mm"
     showgrid="false"
     inkscape:zoom="1.1893044"
     inkscape:cx="507.85989"
     inkscape:cy="390.14402"
     inkscape:window-width="1440"
     inkscape:window-height="877"
     inkscape:window-x="-8"
     inkscape:window-y="-8"
     inkscape:window-maximized="1"
     inkscape:current-layer="layer1" /><defs
     id="defs38550" /><g
     inkscape:label="Capa 1"
     inkscape:groupmode="layer"
     id="layer1"
     style="display:inline"><g
       id="g41693"><g
         id="g39433"
         transform="matrix(-1.0021004,0,0,0.94954794,214.44924,6.5594759)"><path
           style="fill:none;stroke:#000000;stroke-width:0.75;stroke-linecap:butt;stroke-linejoin:miter;stroke-dasharray:none;stroke-opacity:1"
           d="m 104.33795,77.530437 c 0.97418,-1.448584 0.77891,-3.133172 3.89321,-5.116787 -0.3252,-2.834956 -0.55188,-5.866934 0,-10.456042 4.47364,0.8737 8.70339,1.909994 14.01554,2.224691"
           id="path38934"
           sodipodi:nodetypes="cccc" /><path
           style="display:inline;fill:none;stroke:#000000;stroke-width:0.75;stroke-linecap:butt;stroke-linejoin:miter;stroke-dasharray:none;stroke-opacity:1"
           d="m 79.08772,102.11326 2.669627,-4.004444 c -1.482081,-1.7547 -2.350684,-5.129823 -2.55797,-6.582424 -0.506949,-5.429409 -0.510185,-8.293195 2.296501,-14.979549 0.205155,-1.575518 0.192705,-3.653206 0.132068,-5.177978 -1.023616,-3.080378 -1.819937,-6.279962 -1.51361,-9.871856 1.968078,-1.623614 3.100122,-4.050347 4.758277,-6.500421 1.279647,-1.772743 2.668923,-3.39769 3.113867,-5.274771 3.022394,-0.448348 4.026949,0.336427 5.228021,1.001109 2.443954,2.241448 2.708406,3.819568 2.780861,5.339255 -0.49115,4.20127 -1.714704,5.499079 -3.671671,8.026615 2.2457,5.026562 3.802534,9.456829 5.006486,13.441642 6.590213,0.274894 13.078313,-0.198968 19.354803,-2.224691 1.45956,-4.02732 3.72851,-6.759608 6.22913,-9.121227 -0.85519,-2.422044 -1.86238,-4.661685 -2.22469,-7.675179 1.39224,-1.157626 2.50961,-2.275987 2.44716,-3.2258 -1.63516,4.78905 -5.1246,2.588845 -8.00889,2.669627 l -0.6674,-2.669627 0.63959,2.669628 c -2.70127,3.24989 -4.08786,2.855018 -5.97885,4.115675 -3.57519,-0.237443 -4.76899,-2.141855 -6.34036,-3.781972 1.99763,-3.714374 4.42688,-5.620344 7.119,-8.342589 0.32817,-0.591095 1.23173,-1.707296 2.11346,-3.17018 1.93147,-0.539537 3.6147,-1.091292 5.33925,-0.389322 2.373,0.64997 4.74601,0.990796 7.11901,1.223579 0.92216,0.04991 0.96968,-0.503126 3.00333,-0.222467 2.64644,0.856662 2.36754,2.200881 3.33704,3.337033 0.11613,0.978724 0.0931,1.539889 0,1.890985 2.46194,8.041359 3.901,12.809502 5.33925,17.575051 1.05052,4.124259 0.11242,7.124512 -1.22358,9.89987 -3.8976,6.900707 -8.23133,10.530341 -12.34703,15.795296 -3.90611,4.395912 -8.14543,8.847362 -12.68073,13.348142 -0.18715,1.76916 -0.10681,3.73894 -0.6674,5.22802 v -0.11124"
           id="path38932"
           sodipodi:nodetypes="cccccccccccccccccccccccccccccccccc" /><path
           style="fill:none;stroke:#000000;stroke-width:0.75;stroke-linecap:butt;stroke-linejoin:miter;stroke-dasharray:none;stroke-opacity:1"
           d="m 125.69015,47.507416 c -0.0137,-1.285831 -1.03893,-2.655964 -2.83157,-4.090043 -4.74914,-0.594058 -9.49829,-0.694055 -14.24743,-0.11208 -0.28476,0.03489 -0.90322,0.183476 -1.13236,0.501401 -0.99629,2.214403 -1.71449,2.953435 -2.71078,4.329959 -2.32497,2.026383 -4.41348,4.998619 -6.606994,7.550846 0.17622,2.366947 1.848174,3.644762 2.772574,3.854078 1.22793,0.291373 1.85474,-0.159765 2.51695,-0.570245"
           id="path38936"
           sodipodi:nodetypes="ccsccccc" /><path
           style="fill:none;stroke:#000000;stroke-width:0.75;stroke-linecap:butt;stroke-linejoin:miter;stroke-dasharray:none;stroke-opacity:1"
           d="m 106.0821,46.080452 c -1.47013,-0.290868 -3.12885,0.249591 -4.7749,0.483108 -0.96135,2.512301 -2.860786,4.868567 -4.09004,7.393538 0.364351,0.633555 0.873951,0.976611 1.534924,1.016921"
           id="path38938"
           sodipodi:nodetypes="cccc" /></g></g></g></svg>
